<?xml version="1.0" encoding="UTF-8" ?>
<!DOCTYPE svg PUBLIC "-//W3C//DTD SVG 1.1//EN" "http://www.w3.org/Graphics/SVG/1.1/DTD/svg11.dtd">
<svg width="175pt" height="160pt" viewBox="0 0 175 160" version="1.1" xmlns="http://www.w3.org/2000/svg">
<g id="#e3363bff">
<path fill="#e3363b" opacity="1.00" d=" M 85.48 1.27 C 86.84 -0.69 90.10 0.50 90.10 2.82 C 90.18 8.60 90.18 14.39 90.11 20.17 C 90.08 23.44 84.92 23.45 84.90 20.17 C 84.82 14.39 84.82 8.61 84.90 2.83 C 85.04 2.44 85.33 1.66 85.48 1.27 Z" />
</g>
<g id="#d52037ff">
<path fill="#d52037" opacity="1.00" d=" M 46.44 7.60 C 47.75 6.78 49.67 7.29 50.19 8.81 C 52.24 14.16 54.18 19.56 56.07 24.96 C 57.54 27.55 53.02 30.15 51.62 27.47 C 50.19 24.39 49.26 21.11 48.04 17.95 C 47.48 14.61 43.61 10.58 46.44 7.60 Z" />
</g>
<g id="#f34f3fff">
<path fill="#f34f3f" opacity="1.00" d=" M 125.33 8.21 C 126.88 6.08 130.73 8.37 129.54 10.83 C 127.55 16.43 125.64 22.07 123.41 27.57 C 121.93 30.33 117.29 27.78 118.95 25.00 C 121.09 19.43 122.66 13.54 125.33 8.21 Z" />
</g>
<g id="#cb1034ff">
<path fill="#cb1034" opacity="1.00" d=" M 9.18 25.24 L 9.98 24.60 C 10.47 24.62 11.45 24.68 11.94 24.71 C 16.12 29.04 19.78 33.85 23.66 38.46 C 25.10 39.68 24.63 42.22 22.80 42.76 C 21.25 43.38 19.93 42.16 19.06 41.03 C 15.73 36.96 12.29 32.98 8.99 28.88 C 8.03 27.93 7.99 26.02 9.18 25.24 Z" />
</g>
<g id="#ff6842ff">
<path fill="#ff6842" opacity="1.00" d=" M 162.20 26.25 C 164.60 25.01 167.13 28.25 165.26 30.23 C 161.46 34.76 157.81 39.43 153.81 43.78 C 151.81 45.87 148.18 42.36 150.22 40.28 C 154.17 35.59 157.86 30.55 162.20 26.25 Z" />
</g>
<g id="#df303aff">
<path fill="#df303a" opacity="1.00" d=" M 51.64 39.58 C 63.94 35.18 77.13 33.47 90.16 34.32 C 86.83 35.09 84.53 37.62 82.77 40.38 C 71.77 41.83 61.31 47.87 55.10 57.14 C 54.18 58.13 53.57 59.93 51.98 59.91 C 50.05 60.40 48.36 57.99 49.43 56.33 C 52.93 50.21 58.28 45.41 64.03 41.44 C 58.43 42.75 52.94 44.51 47.63 46.70 C 47.56 43.72 50.92 42.33 51.64 39.58 Z" />
</g>
<g id="#ee473dff">
<path fill="#ee473d" opacity="1.00" d=" M 82.77 40.38 C 84.53 37.62 86.83 35.09 90.16 34.32 C 98.98 34.92 107.71 36.68 116.11 39.43 C 114.66 42.44 113.23 45.46 111.79 48.48 C 103.66 42.09 93.03 39.17 82.77 40.38 Z" />
</g>
<g id="#d31e36ff">
<path fill="#d31e36" opacity="1.00" d=" M 20.61 56.28 C 30.07 49.27 40.48 43.42 51.64 39.58 C 50.92 42.33 47.56 43.72 47.63 46.70 C 37.59 50.99 28.23 56.74 19.76 63.62 C 19.94 61.16 20.25 58.72 20.61 56.28 Z" />
</g>
<g id="#fc5e41ff">
<path fill="#fc5e41" opacity="1.00" d=" M 116.11 39.43 C 126.94 43.02 137.29 48.02 146.89 54.15 C 148.75 55.09 148.44 57.84 146.66 58.66 C 144.88 59.39 143.30 57.94 141.82 57.17 C 133.52 51.91 124.50 47.96 115.35 44.45 C 126.82 53.99 133.68 69.02 132.10 84.00 C 131.10 96.89 124.00 108.75 113.79 116.51 C 116.55 115.68 119.27 114.70 121.95 113.64 C 121.07 115.56 120.31 117.60 120.72 119.75 C 108.04 124.42 94.38 126.43 80.89 125.50 C 84.57 125.48 86.69 122.65 88.20 119.70 C 99.21 119.55 110.00 114.50 117.21 106.19 C 124.89 97.51 128.54 85.34 126.63 73.88 C 125.18 63.94 119.74 54.64 111.79 48.48 C 113.23 45.46 114.66 42.44 116.11 39.43 Z" />
</g>
<g id="#f24e3eff">
<path fill="#f24e3e" opacity="1.00" d=" M 102.16 49.29 C 108.11 46.76 115.58 51.46 115.85 57.92 C 116.75 64.37 110.23 70.34 103.90 68.95 C 98.90 68.10 95.07 63.04 95.56 58.00 C 95.92 54.19 98.50 50.56 102.16 49.29 M 103.34 54.48 C 100.37 55.99 99.79 60.48 102.44 62.59 C 105.01 65.18 110.03 63.57 110.61 59.96 C 111.72 56.01 106.86 52.21 103.34 54.48 Z" />
</g>
<g id="#ce1435ff">
<path fill="#ce1435" opacity="1.00" d=" M 2.66 72.60 C 8.13 66.63 14.14 61.15 20.61 56.28 C 20.25 58.72 19.94 61.16 19.76 63.62 C 14.86 67.76 9.99 72.01 5.86 76.93 C 4.98 77.78 4.97 79.27 5.91 80.07 C 9.75 84.14 13.88 87.95 18.11 91.61 C 17.31 93.21 16.51 94.80 15.71 96.40 C 11.04 92.37 6.43 88.25 2.18 83.77 C 0.83 82.45 0.23 80.62 0.00 78.79 L 0.00 78.23 C 0.17 76.08 1.16 74.12 2.66 72.60 Z" />
</g>
<g id="#ff7344ff">
<path fill="#ff7344" opacity="1.00" d=" M 152.73 64.20 C 150.14 62.79 152.31 58.60 154.99 59.66 C 161.13 63.82 166.83 68.61 172.44 73.46 C 175.72 76.19 175.78 81.73 172.65 84.60 C 158.19 99.89 140.58 112.51 120.72 119.75 C 120.31 117.60 121.07 115.56 121.95 113.64 C 139.19 106.78 154.51 95.64 167.51 82.50 C 168.68 81.29 170.81 79.48 169.27 77.73 C 164.12 72.80 158.29 68.65 152.73 64.20 Z" />
</g>
<g id="#dd2c39ff">
<path fill="#dd2c39" opacity="1.00" d=" M 44.92 66.09 C 45.78 62.63 51.34 64.84 49.63 68.03 C 46.64 77.87 47.52 88.74 52.17 97.91 C 50.99 99.35 49.80 100.79 48.61 102.23 C 42.42 91.41 40.87 77.92 44.92 66.09 Z" />
</g>
<g id="#e83f3cff">
<path fill="#e83f3c" opacity="1.00" d=" M 72.24 85.01 C 68.36 74.82 77.30 63.06 88.09 63.63 C 87.90 64.93 87.73 66.24 87.56 67.55 C 88.47 68.10 89.39 68.63 90.32 69.15 C 84.70 67.79 78.46 71.36 76.96 76.97 C 76.01 79.64 76.98 82.39 77.49 85.03 C 77.32 88.19 72.53 88.04 72.24 85.01 Z" />
</g>
<g id="#f14d3eff">
<path fill="#f14d3e" opacity="1.00" d=" M 88.09 63.63 C 96.88 63.93 104.29 72.12 103.58 80.90 C 103.30 90.49 93.11 98.23 83.80 95.60 C 81.50 95.29 78.04 93.66 79.64 90.81 C 81.89 88.11 85.14 91.49 87.95 90.81 C 95.15 90.94 100.43 82.61 97.73 76.07 C 96.60 72.64 93.53 70.45 90.32 69.15 C 89.39 68.63 88.47 68.10 87.56 67.55 C 87.73 66.24 87.90 64.93 88.09 63.63 Z" />
</g>
<g id="#db2938ff">
<path fill="#db2938" opacity="1.00" d=" M 15.71 96.40 C 16.51 94.80 17.31 93.21 18.11 91.61 C 26.57 98.84 35.77 105.26 45.75 110.22 C 46.90 110.96 48.74 111.45 48.74 113.13 C 49.11 115.33 46.32 116.72 44.60 115.47 C 34.16 110.48 24.58 103.81 15.71 96.40 Z" />
</g>
<g id="#e63a3cff">
<path fill="#e63a3c" opacity="1.00" d=" M 52.17 97.91 C 55.00 103.51 59.19 108.36 64.21 112.09 C 62.73 115.28 61.07 118.39 59.06 121.28 C 56.80 120.44 52.09 119.86 53.41 116.36 C 55.09 113.26 58.83 115.97 61.27 116.48 C 56.21 112.56 51.74 107.84 48.61 102.23 C 49.80 100.79 50.99 99.35 52.17 97.91 Z" />
</g>
<g id="#ed463dff">
<path fill="#ed463d" opacity="1.00" d=" M 64.21 112.09 C 71.12 117.12 79.65 119.85 88.20 119.70 C 86.69 122.65 84.57 125.48 80.89 125.50 C 73.48 124.99 66.15 123.48 59.06 121.28 C 61.07 118.39 62.73 115.28 64.21 112.09 Z" />
</g>
<g id="#d82437ff">
<path fill="#d82437" opacity="1.00" d=" M 20.34 116.25 C 22.41 114.06 26.03 117.79 23.88 119.83 C 20.29 124.27 16.60 128.64 12.91 133.00 C 11.86 134.46 9.22 134.23 8.54 132.54 C 7.61 130.85 9.25 129.40 10.17 128.18 C 13.63 124.26 16.74 120.04 20.34 116.25 Z" />
</g>
<g id="#ff7b46ff">
<path fill="#ff7b46" opacity="1.00" d=" M 152.17 117.15 C 153.48 116.79 154.24 118.19 155.05 118.93 C 158.49 123.12 162.08 127.19 165.42 131.46 C 166.83 133.04 165.04 136.02 162.96 135.43 C 161.59 135.26 160.93 133.88 160.02 133.01 C 156.77 128.96 153.26 125.11 150.11 120.97 C 148.81 119.51 150.34 116.97 152.17 117.15 Z" />
</g>
<g id="#e83e3cff">
<path fill="#e83e3c" opacity="1.00" d=" M 51.55 131.63 C 53.60 130.19 56.53 132.72 55.26 134.96 C 53.27 140.39 51.42 145.88 49.29 151.25 C 48.03 154.04 43.35 152.01 44.63 149.16 C 46.74 143.44 48.57 137.60 50.99 132.01 L 51.55 131.63 Z" />
</g>
<g id="#ff6b43ff">
<path fill="#ff6b43" opacity="1.00" d=" M 117.64 133.89 C 118.13 131.46 121.76 130.32 122.77 132.98 C 124.91 138.59 127.03 144.22 128.87 149.93 C 129.41 152.83 124.68 153.97 123.93 151.07 C 121.71 145.39 119.77 139.60 117.64 133.89 Z" />
</g>
<g id="#f85740ff">
<path fill="#f85740" opacity="1.00" d=" M 85.49 137.57 C 87.12 136.64 89.43 138.10 89.23 139.97 C 89.31 145.65 89.30 151.34 89.24 157.02 C 89.51 159.14 86.57 160.63 85.02 159.12 C 83.75 158.12 84.21 156.38 84.10 155.00 C 84.17 149.98 84.05 144.96 84.15 139.94 C 84.13 138.90 84.57 138.11 85.49 137.57 Z" />
</g>
</svg>
