<?xml version="1.0" encoding="UTF-8" ?>
<!DOCTYPE svg PUBLIC "-//W3C//DTD SVG 1.1//EN" "http://www.w3.org/Graphics/SVG/1.1/DTD/svg11.dtd">
<svg width="160pt" height="160pt" viewBox="0 0 160 160" version="1.1" xmlns="http://www.w3.org/2000/svg">
<g id="#de2d39ff">
<path fill="#de2d39" opacity="1.00" d=" M 72.50 0.00 L 87.01 0.00 L 87.80 0.17 C 85.57 0.66 83.44 1.59 81.95 3.37 C 83.48 3.66 85.02 3.92 86.54 4.24 L 86.61 4.72 C 82.21 4.67 77.82 4.73 73.42 4.62 C 73.11 9.74 73.61 14.89 73.17 20.00 C 72.87 20.32 72.27 20.94 71.97 21.26 C 67.98 21.71 63.95 21.34 59.94 21.45 C 60.31 19.87 60.67 18.30 61.04 16.72 C 63.57 16.75 66.11 16.75 68.64 16.73 C 68.72 12.47 68.42 8.20 68.76 3.95 C 68.98 1.94 70.84 0.78 72.50 0.00 Z" />
</g>
<g id="#e63a3cff">
<path fill="#e63a3c" opacity="1.00" d=" M 81.95 3.37 C 83.44 1.59 85.57 0.66 87.80 0.17 C 89.84 0.82 91.47 2.79 91.33 4.99 C 91.48 8.90 91.32 12.82 91.35 16.73 C 91.97 16.73 93.20 16.74 93.82 16.74 C 93.48 18.32 93.15 19.90 92.82 21.48 C 90.81 21.21 87.95 22.22 86.83 19.95 C 86.38 14.88 86.89 9.79 86.61 4.72 L 86.54 4.24 C 85.02 3.92 83.48 3.66 81.95 3.37 Z" />
</g>
<g id="#d92538ff">
<path fill="#d92538" opacity="1.00" d=" M 51.64 20.62 C 53.27 16.83 57.40 16.32 61.04 16.72 C 60.67 18.30 60.31 19.87 59.94 21.45 C 58.81 21.46 57.68 21.47 56.56 21.48 C 56.57 25.91 56.55 30.34 56.58 34.77 C 58.06 34.78 59.54 34.78 61.02 34.78 C 60.34 36.36 59.67 37.94 58.99 39.52 C 55.69 40.04 52.52 38.39 51.61 35.08 L 51.23 35.04 C 46.97 34.19 42.61 34.35 38.29 34.07 C 38.45 32.82 38.62 31.58 38.78 30.33 C 43.15 30.35 47.52 30.35 51.88 30.32 C 51.87 28.65 51.87 26.99 51.86 25.32 C 48.56 25.31 45.25 25.30 41.94 25.31 C 42.33 23.75 42.72 22.19 43.11 20.63 C 45.96 20.63 48.80 20.64 51.64 20.62 Z" />
</g>
<g id="#ed453dff">
<path fill="#ed453d" opacity="1.00" d=" M 93.82 16.74 C 97.51 16.90 101.27 16.34 104.91 17.08 C 109.36 18.77 107.95 24.27 108.17 27.95 C 107.89 31.73 109.49 37.41 104.93 39.18 C 100.45 39.89 95.87 39.31 91.35 39.49 C 91.29 43.67 91.55 47.86 91.27 52.03 C 91.09 54.15 89.23 55.96 87.13 56.16 C 83.45 56.43 79.76 56.19 76.08 56.30 C 76.43 54.72 76.78 53.15 77.13 51.58 C 80.32 51.59 83.50 51.58 86.69 51.55 C 86.72 47.01 86.58 42.46 86.70 37.92 C 86.51 36.56 87.28 34.77 88.87 34.86 C 93.71 34.62 98.57 34.85 103.42 34.78 C 103.45 30.34 103.43 25.91 103.44 21.48 C 99.90 21.43 96.36 21.43 92.82 21.48 C 93.15 19.90 93.48 18.32 93.82 16.74 Z" />
</g>
<g id="#c80c33ff">
<path fill="#c80c33" opacity="1.00" d=" M 0.22 30.84 C -0.29 27.23 -0.44 21.93 4.00 20.83 C 10.34 20.34 16.73 20.76 23.09 20.63 C 22.71 22.19 22.34 23.75 21.97 25.31 C 16.18 25.39 10.39 25.12 4.61 25.48 C 4.65 27.09 4.69 28.69 4.74 30.29 C 16.08 30.40 27.43 30.28 38.78 30.33 C 38.62 31.58 38.45 32.82 38.29 34.07 C 42.61 34.35 46.97 34.19 51.23 35.04 C 37.34 35.14 23.44 35.06 9.55 35.08 C 9.54 38.55 9.54 42.02 9.53 45.49 C 12.09 45.50 14.65 45.50 17.21 45.50 C 16.85 47.07 16.49 48.64 16.13 50.21 C 13.93 50.21 11.73 50.22 9.53 50.22 C 9.53 51.68 9.53 53.14 9.52 54.60 C 8.29 56.64 6.67 58.63 6.40 61.08 C 5.93 65.22 6.76 69.57 4.89 73.46 C 4.71 60.72 4.90 47.98 4.79 35.24 C 2.86 34.35 0.41 33.30 0.22 30.84 Z" />
</g>
<g id="#cf1735ff">
<path fill="#cf1735" opacity="1.00" d=" M 23.09 20.63 C 29.76 20.63 36.44 20.62 43.11 20.63 C 42.72 22.19 42.33 23.75 41.94 25.31 C 35.28 25.32 28.63 25.31 21.97 25.31 C 22.34 23.75 22.71 22.19 23.09 20.63 Z" />
</g>
<g id="#f75640ff">
<path fill="#f75640" opacity="1.00" d=" M 112.53 24.06 C 111.89 22.36 113.12 20.50 114.98 20.68 C 122.28 20.54 129.57 20.67 136.87 20.63 C 136.53 22.19 136.20 23.75 135.87 25.31 C 129.59 25.32 123.30 25.30 117.02 25.33 C 115.43 25.30 113.61 25.50 112.53 24.06 Z" />
<path fill="#f75640" opacity="1.00" d=" M 49.70 155.35 C 64.95 155.36 80.20 155.21 95.45 155.38 C 92.60 156.25 89.63 156.59 86.65 156.58 C 86.47 157.27 86.10 158.65 85.92 159.34 C 77.41 159.53 68.91 159.07 60.40 158.92 C 60.18 158.29 59.75 157.05 59.54 156.43 C 56.25 156.17 52.97 155.74 49.70 155.35 Z" />
</g>
<g id="#ff6b43ff">
<path fill="#ff6b43" opacity="1.00" d=" M 136.87 20.63 C 142.91 20.71 148.97 20.49 155.01 20.70 C 157.45 20.67 159.13 22.75 160.00 24.80 L 160.00 30.21 C 159.75 32.92 157.51 34.38 155.22 35.22 C 155.16 39.02 155.19 42.84 155.19 46.65 C 154.73 46.65 153.81 46.67 153.35 46.68 C 152.78 47.82 152.21 48.96 151.64 50.10 C 151.35 50.11 150.77 50.13 150.47 50.15 C 144.96 50.31 139.45 50.17 133.93 50.22 C 134.32 48.64 134.70 47.07 135.09 45.50 C 140.22 45.50 145.35 45.51 150.48 45.49 C 150.46 41.97 150.44 38.45 150.48 34.93 C 145.27 33.36 139.76 34.42 134.43 33.73 C 134.26 32.88 133.92 31.18 133.75 30.34 C 140.94 30.32 148.13 30.39 155.32 30.28 C 155.29 28.62 155.24 26.97 155.21 25.31 C 148.76 25.32 142.32 25.31 135.87 25.31 C 136.20 23.75 136.53 22.19 136.87 20.63 Z" />
</g>
<g id="#f85940ff">
<path fill="#f85940" opacity="1.00" d=" M 114.86 34.93 C 112.35 35.04 111.64 31.51 113.91 30.51 C 120.51 30.09 127.14 30.44 133.75 30.34 C 133.92 31.18 134.26 32.88 134.43 33.73 C 139.76 34.42 145.27 33.36 150.48 34.93 C 138.61 35.17 126.72 35.20 114.86 34.93 Z" />
</g>
<g id="#e3363bff">
<path fill="#e3363b" opacity="1.00" d=" M 61.02 34.78 C 64.67 34.86 68.34 34.55 71.97 34.96 C 72.26 35.25 72.83 35.84 73.11 36.13 C 73.64 41.24 73.19 46.40 73.31 51.54 C 74.58 51.55 75.86 51.57 77.13 51.58 C 76.78 53.15 76.43 54.72 76.08 56.30 C 73.32 56.54 69.81 56.00 68.88 52.91 C 68.30 48.47 68.76 43.96 68.65 39.49 C 65.43 39.47 62.21 39.49 58.99 39.52 C 59.67 37.94 60.34 36.36 61.02 34.78 Z" />
<path fill="#e3363b" opacity="1.00" d=" M 17.06 155.31 C 24.03 155.33 31.01 155.29 37.98 155.32 C 37.64 156.53 37.30 157.75 36.96 158.97 C 30.34 159.31 23.72 159.25 17.09 159.36 C 17.09 158.35 17.07 156.33 17.06 155.31 Z" />
</g>
<g id="#d21a36ff">
<path fill="#d21a36" opacity="1.00" d=" M 17.21 45.50 C 25.40 45.51 33.59 45.49 41.79 45.50 C 41.61 47.07 41.44 48.64 41.33 50.21 C 32.93 50.22 24.53 50.21 16.13 50.21 C 16.49 48.64 16.85 47.07 17.21 45.50 Z" />
</g>
<g id="#dc2b39ff">
<path fill="#dc2b39" opacity="1.00" d=" M 41.79 45.50 C 48.51 45.62 55.24 45.29 61.95 45.62 C 64.47 45.61 64.58 49.87 62.06 50.09 C 56.68 50.43 51.28 50.09 45.90 50.24 C 45.87 63.87 45.91 77.51 45.90 91.15 C 51.18 92.72 56.74 92.03 62.16 92.54 C 61.01 93.95 59.57 95.10 57.84 95.70 C 41.74 95.66 25.64 95.73 9.54 95.62 C 14.19 94.67 18.95 94.81 23.67 94.59 C 24.07 93.83 24.48 93.07 24.88 92.32 C 19.78 91.87 14.62 92.12 9.57 91.18 C 20.13 90.97 30.70 91.26 41.26 90.89 C 41.31 77.33 41.19 63.77 41.33 50.21 C 41.44 48.64 41.61 47.07 41.79 45.50 Z" />
</g>
<g id="#f4513fff">
<path fill="#f4513f" opacity="1.00" d=" M 97.08 50.07 C 94.92 49.58 94.79 46.35 96.88 45.65 C 103.95 45.29 111.04 45.60 118.13 45.50 C 117.37 47.46 116.60 49.41 115.81 51.36 C 115.39 51.11 114.53 50.62 114.11 50.37 C 108.44 49.90 102.74 50.53 97.08 50.07 Z" />
</g>
<g id="#fc5e41ff">
<path fill="#fc5e41" opacity="1.00" d=" M 118.13 45.50 C 123.78 45.51 129.44 45.49 135.09 45.50 C 134.70 47.07 134.32 48.64 133.93 50.22 C 128.87 50.22 123.81 50.21 118.74 50.21 C 118.75 63.85 118.74 77.48 118.76 91.12 C 121.86 91.60 124.99 91.89 128.11 92.17 C 128.30 92.98 128.48 93.79 128.67 94.61 C 135.92 95.12 143.23 94.78 150.46 95.63 C 134.07 95.75 117.67 95.70 101.28 95.64 C 94.70 94.30 87.97 94.73 81.31 94.52 C 81.66 93.39 82.01 92.25 82.32 91.11 C 92.81 91.05 103.30 91.22 113.78 90.95 C 114.30 89.36 114.08 87.65 114.14 86.01 C 114.07 74.13 114.18 62.25 114.11 50.37 C 114.53 50.62 115.39 51.11 115.81 51.36 C 116.60 49.41 117.37 47.46 118.13 45.50 Z" />
</g>
<g id="#ff7845ff">
<path fill="#ff7845" opacity="1.00" d=" M 153.35 46.68 C 153.81 46.67 154.73 46.65 155.19 46.65 C 155.19 65.77 155.17 84.89 155.20 104.01 C 155.25 105.94 154.93 108.09 153.38 109.42 C 151.06 111.54 147.64 110.62 144.81 110.86 C 144.76 122.42 144.87 133.98 144.76 145.54 C 148.77 145.86 152.94 145.05 156.85 146.09 C 160.66 147.77 160.14 152.52 159.79 155.93 C 159.49 158.14 157.43 159.42 155.47 160.00 L 110.84 160.00 C 102.57 158.98 94.22 159.61 85.92 159.34 C 86.10 158.65 86.47 157.27 86.65 156.58 C 89.63 156.59 92.60 156.25 95.45 155.38 C 115.41 155.22 135.36 155.41 155.31 155.26 C 155.27 153.60 155.23 151.94 155.18 150.29 C 147.76 150.24 140.34 150.42 132.93 150.22 C 130.58 150.25 129.88 146.73 132.12 145.79 C 134.80 145.46 137.51 145.61 140.20 145.57 C 140.15 133.99 140.21 122.41 140.18 110.83 C 134.57 110.82 128.97 110.80 123.37 110.83 C 125.10 110.23 126.90 109.83 128.68 109.39 C 129.08 108.77 129.48 108.15 129.88 107.54 C 127.86 107.12 125.85 106.71 123.85 106.25 C 132.69 106.14 141.53 106.27 150.37 106.16 C 150.48 102.65 150.48 99.14 150.46 95.63 C 143.23 94.78 135.92 95.12 128.67 94.61 C 128.48 93.79 128.30 92.98 128.11 92.17 C 124.99 91.89 121.86 91.60 118.76 91.12 C 129.32 91.02 139.87 91.13 150.43 91.08 C 150.51 77.44 150.43 63.79 150.47 50.15 C 150.77 50.13 151.35 50.11 151.64 50.10 C 152.21 48.96 152.78 47.82 153.35 46.68 Z" />
</g>
<g id="#d01935ff">
<path fill="#d01935" opacity="1.00" d=" M 6.40 61.08 C 6.67 58.63 8.29 56.64 9.52 54.60 C 9.57 66.79 9.49 78.99 9.57 91.18 C 14.62 92.12 19.78 91.87 24.88 92.32 C 24.48 93.07 24.07 93.83 23.67 94.59 C 18.95 94.81 14.19 94.67 9.54 95.62 C 9.52 99.17 9.53 102.72 9.62 106.28 C 12.31 106.98 15.08 107.29 17.85 107.45 C 17.58 109.18 17.31 110.91 17.03 112.63 C 16.42 112.05 15.80 111.47 15.19 110.89 C 12.92 110.81 10.59 111.02 8.37 110.49 C 5.71 109.60 4.58 106.64 4.80 104.03 C 4.86 93.84 4.73 83.65 4.89 73.46 C 6.76 69.57 5.93 65.22 6.40 61.08 Z" />
</g>
<g id="#ec453dff">
<path fill="#ec453d" opacity="1.00" d=" M 77.80 61.93 C 78.60 59.39 82.72 60.27 82.32 62.94 C 82.40 72.33 82.39 81.72 82.32 91.11 C 82.01 92.25 81.66 93.39 81.31 94.52 C 87.97 94.73 94.70 94.30 101.28 95.64 C 86.80 95.79 72.32 95.61 57.84 95.70 C 59.57 95.10 61.01 93.95 62.16 92.54 C 56.74 92.03 51.18 92.72 45.90 91.15 C 56.47 91.06 67.06 91.12 77.64 91.05 C 77.80 81.34 77.44 71.62 77.80 61.93 Z" />
</g>
<g id="#e83e3cff">
<path fill="#e83e3c" opacity="1.00" d=" M 36.19 106.21 C 36.41 103.16 38.57 99.91 41.97 100.20 C 53.20 100.13 64.43 100.15 75.66 100.16 C 77.46 100.63 79.23 101.22 81.01 101.79 C 80.41 102.79 79.81 103.79 79.21 104.80 C 66.53 104.81 53.85 104.70 41.18 104.81 C 41.18 106.27 41.18 107.73 41.19 109.19 C 53.56 109.31 65.94 109.16 78.31 109.23 C 76.53 109.92 73.24 109.51 72.90 111.88 C 74.38 112.76 76.04 113.25 77.66 113.81 C 68.51 113.91 59.37 113.81 50.23 113.84 C 50.18 124.42 50.25 135.01 50.19 145.59 C 52.52 145.60 54.85 145.60 57.18 145.61 C 56.83 147.17 56.48 148.73 56.13 150.30 C 49.35 150.31 42.58 150.29 35.81 150.30 C 36.17 148.73 36.53 147.17 36.89 145.61 C 39.77 145.61 42.64 145.61 45.51 145.61 C 45.42 135.01 45.64 124.41 45.41 113.81 C 42.23 114.07 38.59 113.92 36.80 110.82 C 36.39 110.21 36.00 109.59 35.62 108.98 C 35.80 108.05 36.00 107.13 36.19 106.21 Z" />
</g>
<g id="#f75540ff">
<path fill="#f75540" opacity="1.00" d=" M 75.66 100.16 C 90.56 100.38 105.50 99.72 120.37 100.44 C 115.71 100.88 111.01 100.81 106.36 101.33 C 105.95 102.14 105.54 102.94 105.14 103.75 C 109.50 103.86 113.94 103.56 118.19 104.78 C 105.19 104.82 92.20 104.72 79.21 104.80 C 79.81 103.79 80.41 102.79 81.01 101.79 C 79.23 101.22 77.46 100.63 75.66 100.16 Z" />
</g>
<g id="#ff6943ff">
<path fill="#ff6943" opacity="1.00" d=" M 106.36 101.33 C 111.01 100.81 115.71 100.88 120.37 100.44 C 122.49 101.69 123.51 103.89 123.85 106.25 C 125.85 106.71 127.86 107.12 129.88 107.54 C 129.48 108.15 129.08 108.77 128.68 109.39 C 126.90 109.83 125.10 110.23 123.37 110.83 C 121.30 113.77 117.83 114.14 114.51 113.90 C 114.47 124.47 114.53 135.03 114.49 145.60 C 118.06 145.66 121.64 145.42 125.20 145.73 C 127.36 146.29 127.35 149.66 125.16 150.18 C 114.72 150.48 104.26 150.20 93.82 150.30 C 94.20 148.73 94.58 147.17 94.96 145.60 C 99.91 145.61 104.86 145.61 109.81 145.60 C 109.70 135.02 109.91 124.44 109.71 113.86 L 109.48 113.24 C 106.06 112.84 102.62 112.77 99.18 112.66 C 99.20 112.09 99.25 110.94 99.27 110.36 C 105.56 109.91 111.94 110.61 118.14 109.23 L 118.81 109.14 C 118.83 107.73 118.86 106.32 118.88 104.91 L 118.19 104.78 C 113.94 103.56 109.50 103.86 105.14 103.75 C 105.54 102.94 105.95 102.14 106.36 101.33 Z" />
</g>
<g id="#da2838ff">
<path fill="#da2838" opacity="1.00" d=" M 9.62 106.28 C 18.48 106.14 27.33 106.21 36.19 106.21 C 36.00 107.13 35.80 108.05 35.62 108.98 C 36.00 109.59 36.39 110.21 36.80 110.82 C 31.14 110.85 25.48 110.81 19.82 110.83 C 19.75 122.42 19.92 134.02 19.76 145.61 C 19.53 147.18 19.22 148.74 18.92 150.30 C 14.33 150.39 9.72 150.10 5.14 150.41 C 4.14 151.69 4.93 153.71 4.68 155.27 C 8.80 155.34 12.93 155.31 17.06 155.31 C 17.07 156.33 17.09 158.35 17.09 159.36 C 12.94 159.39 8.79 159.59 4.64 159.95 C 2.23 159.52 0.05 157.57 0.11 154.98 C -0.02 152.04 -0.48 148.21 2.51 146.46 C 6.39 144.48 11.17 146.48 15.13 145.26 C 15.29 133.81 15.18 122.35 15.19 110.89 C 15.80 111.47 16.42 112.05 17.03 112.63 C 17.31 110.91 17.58 109.18 17.85 107.45 C 15.08 107.29 12.31 106.98 9.62 106.28 Z" />
</g>
<g id="#f65440ff">
<path fill="#f65440" opacity="1.00" d=" M 78.31 109.23 C 91.59 109.24 104.86 109.18 118.14 109.23 C 111.94 110.61 105.56 109.91 99.27 110.36 C 99.25 110.94 99.20 112.09 99.18 112.66 C 102.62 112.77 106.06 112.84 109.48 113.24 L 109.71 113.86 C 100.59 113.86 91.47 113.83 82.36 113.84 C 82.35 118.34 82.35 122.84 82.35 127.33 C 83.98 127.42 85.65 127.30 87.26 127.69 C 88.86 128.56 88.83 131.27 86.99 131.82 C 85.48 132.25 83.89 132.12 82.34 132.22 C 82.36 136.68 82.36 141.14 82.34 145.60 C 86.54 145.60 90.75 145.59 94.96 145.60 C 94.58 147.17 94.20 148.73 93.82 150.30 C 81.25 150.31 68.69 150.28 56.13 150.30 C 56.48 148.73 56.83 147.17 57.18 145.61 C 64.01 145.61 70.84 145.61 77.67 145.60 C 77.64 141.14 77.64 136.68 77.66 132.22 C 75.35 132.14 70.97 132.58 71.61 128.99 C 72.76 126.69 75.63 127.66 77.66 127.34 C 77.65 122.83 77.65 118.32 77.66 113.81 C 76.04 113.25 74.38 112.76 72.90 111.88 C 73.24 109.51 76.53 109.92 78.31 109.23 Z" />
</g>
<g id="#e2343aff">
<path fill="#e2343a" opacity="1.00" d=" M 19.76 145.61 C 25.47 145.61 31.18 145.60 36.89 145.61 C 36.53 147.17 36.17 148.73 35.81 150.30 C 30.18 150.30 24.55 150.29 18.92 150.30 C 19.22 148.74 19.53 147.18 19.76 145.61 Z" />
</g>
<g id="#ed463dff">
<path fill="#ed463d" opacity="1.00" d=" M 37.98 155.32 C 41.89 155.34 45.79 155.27 49.70 155.35 C 52.97 155.74 56.25 156.17 59.54 156.43 C 59.75 157.05 60.18 158.29 60.40 158.92 C 52.58 159.17 44.77 158.79 36.96 158.97 C 37.30 157.75 37.64 156.53 37.98 155.32 Z" />
</g>
<g id="#de4639ed">
<path fill="#de4639" opacity="0.93" d=" M 4.64 159.95 C 8.79 159.59 12.94 159.39 17.09 159.36 C 23.72 159.25 30.34 159.31 36.96 158.97 C 44.77 158.79 52.58 159.17 60.40 158.92 C 68.91 159.07 77.41 159.53 85.92 159.34 C 94.22 159.61 102.57 158.98 110.84 160.00 L 3.59 160.00 L 4.64 159.95 Z" />
</g>
</svg>
