<?xml version="1.0" encoding="UTF-8" ?>
<!DOCTYPE svg PUBLIC "-//W3C//DTD SVG 1.1//EN" "http://www.w3.org/Graphics/SVG/1.1/DTD/svg11.dtd">
<svg width="160pt" height="160pt" viewBox="0 0 160 160" version="1.1" xmlns="http://www.w3.org/2000/svg">
<g id="#ce1735ff">
<path fill="#ce1735" opacity="1.00" d=" M 22.73 0.00 L 136.95 0.00 L 138.36 0.22 C 132.85 0.31 127.34 0.46 121.83 0.34 C 107.92 0.18 94.01 0.62 80.10 0.70 C 73.40 0.64 66.68 0.65 60.00 1.16 C 58.04 1.11 56.54 2.40 55.06 3.47 C 57.15 4.00 59.25 4.53 61.38 4.90 C 48.87 5.41 36.35 4.66 23.85 5.03 C 25.57 4.11 29.23 3.85 28.76 1.24 C 26.45 0.53 24.03 0.30 21.63 0.16 L 22.73 0.00 Z" />
</g>
<g id="#c60b32ff">
<path fill="#c60b32" opacity="1.00" d=" M 0.00 22.95 C 0.95 11.55 10.28 1.68 21.63 0.16 C 24.03 0.30 26.45 0.53 28.76 1.24 C 29.23 3.85 25.57 4.11 23.85 5.03 C 16.82 5.45 10.23 9.74 7.11 16.06 C 4.44 21.29 4.92 27.31 5.01 32.99 C 4.96 67.09 5.26 101.20 4.94 135.31 C 3.37 122.54 5.19 109.57 3.55 96.82 C 2.54 99.13 1.50 101.48 1.24 104.01 C 0.22 115.08 1.67 126.27 0.14 137.30 L 0.00 138.44 L 0.00 22.95 Z" />
</g>
<g id="#dc2a38ff">
<path fill="#dc2a38" opacity="1.00" d=" M 55.06 3.47 C 56.54 2.40 58.04 1.11 60.00 1.16 C 66.68 0.65 73.40 0.64 80.10 0.70 C 79.53 1.70 78.98 2.70 78.41 3.70 C 85.41 3.85 92.44 3.79 99.38 4.88 C 86.72 5.27 74.04 5.06 61.38 4.90 C 59.25 4.53 57.15 4.00 55.06 3.47 Z" />
</g>
<g id="#eb433dff">
<path fill="#eb433d" opacity="1.00" d=" M 80.10 0.70 C 94.01 0.62 107.92 0.18 121.83 0.34 C 121.71 1.47 121.60 2.60 121.49 3.74 C 126.48 3.59 131.51 3.68 136.37 4.94 C 124.04 5.22 111.71 5.07 99.38 4.88 C 92.44 3.79 85.41 3.85 78.41 3.70 C 78.98 2.70 79.53 1.70 80.10 0.70 Z" />
<path fill="#eb433d" opacity="1.00" d=" M 60.13 95.21 C 65.45 102.13 74.35 105.88 83.02 104.82 C 82.07 106.04 81.12 107.26 80.18 108.48 C 80.64 108.85 81.54 109.58 82.00 109.95 C 72.25 110.32 62.83 107.05 54.14 102.91 C 55.16 99.69 57.84 97.51 60.13 95.21 Z" />
</g>
<g id="#ff6342ff">
<path fill="#ff6342" opacity="1.00" d=" M 121.83 0.34 C 127.34 0.46 132.85 0.31 138.36 0.22 C 149.23 1.58 158.35 10.75 159.82 21.59 C 158.67 23.99 157.57 26.42 156.51 28.87 C 155.97 27.17 155.43 25.47 155.00 23.75 C 154.44 13.94 146.11 5.68 136.37 4.94 C 131.51 3.68 126.48 3.59 121.49 3.74 C 121.60 2.60 121.71 1.47 121.83 0.34 Z" />
</g>
<g id="#ff7945ff">
<path fill="#ff7945" opacity="1.00" d=" M 159.82 21.59 L 160.00 22.76 L 160.00 137.00 C 159.09 148.33 149.86 158.25 138.56 159.78 C 134.81 159.49 131.05 159.19 127.28 159.22 C 128.84 155.61 133.15 155.85 136.38 154.99 C 146.50 154.36 155.29 145.23 154.92 134.99 C 154.89 97.90 155.22 60.83 155.00 23.75 C 155.43 25.47 155.97 27.17 156.51 28.87 C 157.57 26.42 158.67 23.99 159.82 21.59 Z" />
</g>
<g id="#cf1535ff">
<path fill="#cf1535" opacity="1.00" d=" M 24.95 25.94 C 24.94 24.64 25.32 22.79 26.91 22.63 C 32.10 22.30 37.32 22.59 42.52 22.50 C 42.52 24.17 42.52 25.83 42.52 27.49 C 38.35 27.51 34.18 27.51 30.01 27.49 C 29.86 31.62 29.90 35.75 30.10 39.88 C 28.42 39.90 26.74 39.92 25.06 39.94 C 25.16 35.27 24.98 30.61 24.95 25.94 Z" />
</g>
<g id="#e4383bff">
<path fill="#e4383b" opacity="1.00" d=" M 77.48 22.51 C 79.16 22.51 80.84 22.51 82.52 22.50 C 82.52 24.17 82.52 25.83 82.52 27.50 C 80.84 27.49 79.16 27.49 77.48 27.49 C 77.48 25.83 77.48 24.17 77.48 22.51 Z" />
</g>
<g id="#ec443dff">
<path fill="#ec443d" opacity="1.00" d=" M 89.93 22.53 C 95.59 22.48 101.25 22.50 106.91 22.50 C 106.57 24.17 106.23 25.83 105.89 27.50 C 100.57 27.50 95.25 27.52 89.93 27.47 C 89.93 25.82 89.93 24.18 89.93 22.53 Z" />
</g>
<g id="#f4513fff">
<path fill="#f4513f" opacity="1.00" d=" M 106.91 22.50 C 112.97 22.51 119.03 22.48 125.10 22.51 C 124.71 24.17 124.32 25.84 123.93 27.50 C 117.92 27.51 111.91 27.49 105.89 27.50 C 106.23 25.83 106.57 24.17 106.91 22.50 Z" />
<path fill="#f4513f" opacity="1.00" d=" M 52.49 156.38 C 55.56 156.09 58.64 155.77 61.72 155.58 C 66.74 155.99 71.80 155.72 76.82 156.17 C 76.62 157.12 76.42 158.07 76.21 159.02 C 68.28 159.20 60.35 159.14 52.42 159.13 C 52.44 158.45 52.47 157.07 52.49 156.38 Z" />
</g>
<g id="#fc5e41ff">
<path fill="#fc5e41" opacity="1.00" d=" M 125.10 22.51 C 128.19 23.05 132.81 21.07 134.80 24.12 C 135.10 29.39 134.85 34.69 135.07 39.97 C 133.34 39.94 131.61 39.92 129.89 39.90 C 130.00 35.77 130.16 31.63 130.01 27.49 C 127.98 27.49 125.96 27.50 123.93 27.50 C 124.32 25.84 124.71 24.17 125.10 22.51 Z" />
</g>
<g id="#e1333aff">
<path fill="#e1333a" opacity="1.00" d=" M 44.82 62.49 C 56.20 55.33 69.26 49.27 83.01 50.14 L 82.57 50.31 C 81.46 50.73 80.36 51.16 79.26 51.59 C 79.29 52.07 79.37 53.01 79.40 53.49 C 80.71 54.05 82.01 54.61 83.34 55.14 C 75.23 54.29 66.74 57.13 61.37 63.38 C 53.39 71.90 52.99 86.06 60.13 95.21 C 57.84 97.51 55.16 99.69 54.14 102.91 C 47.61 99.50 41.45 95.40 35.71 90.78 C 36.91 89.60 38.11 88.43 39.31 87.26 C 44.51 91.52 50.31 94.96 56.09 98.36 C 48.11 87.79 48.12 72.39 55.99 61.77 C 52.16 63.94 48.35 66.17 44.72 68.68 C 44.73 66.61 44.78 64.55 44.82 62.49 Z" />
</g>
<g id="#f24e3eff">
<path fill="#f24e3e" opacity="1.00" d=" M 79.26 51.59 C 80.36 51.16 81.46 50.73 82.57 50.31 C 91.53 50.56 99.98 54.22 107.92 58.12 L 107.84 58.24 C 106.94 59.67 106.03 61.08 105.09 62.47 C 104.84 62.38 104.34 62.19 104.10 62.09 C 106.22 65.24 108.04 68.62 109.06 72.31 C 107.39 72.56 105.77 73.02 104.22 73.67 C 101.71 64.03 93.17 56.55 83.34 55.14 C 82.01 54.61 80.71 54.05 79.40 53.49 C 79.37 53.01 79.29 52.07 79.26 51.59 Z" />
</g>
<g id="#fa5c41ff">
<path fill="#fa5c41" opacity="1.00" d=" M 105.09 62.47 C 106.03 61.08 106.94 59.67 107.84 58.24 C 118.14 63.86 127.86 71.02 135.47 79.98 C 132.48 84.15 128.35 87.29 124.50 90.61 C 112.33 100.49 97.87 108.57 82.00 109.95 C 81.54 109.58 80.64 108.85 80.18 108.48 C 81.12 107.26 82.07 106.04 83.02 104.82 C 91.71 103.85 99.54 97.90 102.96 89.88 C 105.22 84.82 105.38 79.03 104.22 73.67 C 105.77 73.02 107.39 72.56 109.06 72.31 C 111.29 81.22 109.32 90.82 103.98 98.25 C 113.09 93.33 121.50 87.17 128.98 80.00 C 121.77 73.22 113.89 67.05 105.09 62.47 Z" />
</g>
<g id="#d92538ff">
<path fill="#d92538" opacity="1.00" d=" M 26.04 77.99 C 31.72 72.17 38.11 67.06 44.82 62.49 C 44.78 64.55 44.73 66.61 44.72 68.68 C 39.86 72.09 35.35 75.96 31.01 80.00 C 33.71 82.49 36.45 84.95 39.31 87.26 C 38.11 88.43 36.91 89.60 35.71 90.78 C 32.23 87.78 28.63 84.88 25.58 81.44 C 24.62 80.46 25.03 78.78 26.04 77.99 Z" />
</g>
<g id="#ee493dff">
<path fill="#ee493d" opacity="1.00" d=" M 74.94 63.15 C 78.93 62.24 83.23 62.21 87.00 63.98 C 93.54 66.73 98.11 73.89 97.37 81.01 C 97.04 81.34 96.37 81.99 96.03 82.31 C 91.53 82.77 86.99 82.39 82.48 82.51 C 82.41 87.02 82.75 91.56 82.32 96.06 C 81.53 97.24 80.43 97.71 79.01 97.48 C 73.38 97.18 67.99 93.99 65.13 89.11 C 66.17 87.60 67.20 86.09 68.23 84.57 C 69.94 88.51 73.47 91.15 77.47 92.46 C 77.62 87.97 77.22 83.45 77.71 78.98 C 78.02 78.66 78.66 78.03 78.98 77.72 C 83.45 77.21 87.97 77.62 92.46 77.47 C 91.28 74.58 89.91 71.56 87.19 69.81 C 83.61 67.13 78.75 67.01 74.67 68.56 C 74.76 66.76 74.85 64.95 74.94 63.15 Z" />
</g>
<g id="#e73d3cff">
<path fill="#e73d3c" opacity="1.00" d=" M 63.61 73.90 C 65.43 68.75 69.84 64.91 74.94 63.15 C 74.85 64.95 74.76 66.76 74.67 68.56 C 68.93 71.48 66.02 78.46 68.23 84.57 C 67.20 86.09 66.17 87.60 65.13 89.11 L 65.00 89.29 C 62.51 84.61 61.59 78.93 63.61 73.90 Z" />
</g>
<g id="#d31e36ff">
<path fill="#d31e36" opacity="1.00" d=" M 3.55 96.82 C 5.19 109.57 3.37 122.54 4.94 135.31 C 5.23 138.13 5.77 140.94 6.85 143.58 C 6.02 145.45 5.20 147.32 4.38 149.19 C 2.04 145.63 0.52 141.55 0.14 137.30 C 1.67 126.27 0.22 115.08 1.24 104.01 C 1.50 101.48 2.54 99.13 3.55 96.82 Z" />
</g>
<g id="#df303aff">
<path fill="#df303a" opacity="1.00" d=" M 25.07 120.07 C 26.75 120.08 28.42 120.10 30.10 120.12 C 29.89 124.25 29.86 128.39 30.02 132.52 C 34.67 132.48 39.31 132.49 43.96 132.50 C 43.63 134.17 43.30 135.83 42.97 137.50 C 37.37 137.30 31.69 137.95 26.14 137.16 C 25.92 136.84 25.46 136.20 25.24 135.88 C 24.53 130.64 25.31 125.34 25.07 120.07 Z" />
</g>
<g id="#ff7545ff">
<path fill="#ff7545" opacity="1.00" d=" M 130.14 119.93 C 131.72 119.93 133.31 119.93 134.90 119.92 C 134.87 125.24 135.40 130.60 134.78 135.89 C 134.56 136.21 134.11 136.83 133.89 137.15 C 128.49 137.98 122.94 137.27 117.49 137.49 C 117.49 135.83 117.48 134.17 117.48 132.51 C 121.69 132.49 125.90 132.51 130.11 132.47 C 129.84 128.29 129.98 124.11 130.14 119.93 Z" />
</g>
<g id="#ec453dff">
<path fill="#ec453d" opacity="1.00" d=" M 43.96 132.50 C 52.66 132.53 61.37 132.46 70.07 132.52 C 70.07 134.17 70.07 135.82 70.07 137.48 C 61.04 137.55 52.00 137.47 42.97 137.50 C 43.30 135.83 43.63 134.17 43.96 132.50 Z" />
</g>
<g id="#f75540ff">
<path fill="#f75540" opacity="1.00" d=" M 77.49 132.51 C 79.16 132.51 80.84 132.51 82.52 132.51 C 82.52 134.17 82.52 135.83 82.52 137.50 C 80.84 137.49 79.16 137.49 77.48 137.49 C 77.49 135.83 77.49 134.17 77.49 132.51 Z" />
</g>
<g id="#dd2c39ff">
<path fill="#dd2c39" opacity="1.00" d=" M 4.38 149.19 C 5.20 147.32 6.02 145.45 6.85 143.58 C 10.16 150.22 17.07 154.89 24.56 155.00 C 24.81 156.88 24.45 158.82 22.65 159.83 C 15.31 159.33 8.64 155.07 4.38 149.19 Z" />
</g>
<g id="#e63d3cff">
<path fill="#e63d3c" opacity="1.00" d=" M 24.56 155.00 C 36.51 155.33 48.47 154.46 60.41 155.17 L 61.72 155.58 C 58.64 155.77 55.56 156.09 52.49 156.38 C 52.47 157.07 52.44 158.45 52.42 159.13 L 52.41 160.00 L 22.21 160.00 L 22.65 159.83 C 24.45 158.82 24.81 156.88 24.56 155.00 Z" />
</g>
<g id="#fe6142ff">
<path fill="#fe6142" opacity="1.00" d=" M 60.41 155.17 C 72.17 155.09 83.94 155.00 95.70 155.07 C 98.31 155.47 100.90 156.01 103.51 156.45 C 103.72 157.11 104.13 158.42 104.33 159.08 C 94.96 159.23 85.59 158.83 76.21 159.02 C 76.42 158.07 76.62 157.12 76.82 156.17 C 71.80 155.72 66.74 155.99 61.72 155.58 L 60.41 155.17 Z" />
</g>
<g id="#ff7344ff">
<path fill="#ff7344" opacity="1.00" d=" M 95.70 155.07 C 109.26 155.16 122.82 154.88 136.38 154.99 C 133.15 155.85 128.84 155.61 127.28 159.22 C 119.63 159.43 111.98 159.18 104.33 159.08 C 104.13 158.42 103.72 157.11 103.51 156.45 C 100.90 156.01 98.31 155.47 95.70 155.07 Z" />
</g>
<g id="#e95d3dec">
<path fill="#e95d3d" opacity="0.93" d=" M 52.42 159.13 C 60.35 159.14 68.28 159.20 76.21 159.02 C 85.59 158.83 94.96 159.23 104.33 159.08 C 111.98 159.18 119.63 159.43 127.28 159.22 C 131.05 159.19 134.81 159.49 138.56 159.78 L 137.27 160.00 L 52.41 160.00 L 52.42 159.13 Z" />
</g>
</svg>
