<?xml version="1.0" encoding="UTF-8" ?>
<!DOCTYPE svg PUBLIC "-//W3C//DTD SVG 1.1//EN" "http://www.w3.org/Graphics/SVG/1.1/DTD/svg11.dtd">
<svg width="135pt" height="160pt" viewBox="0 0 135 160" version="1.1" xmlns="http://www.w3.org/2000/svg">
<g id="#d11935ff">
<path fill="#d11935" opacity="1.00" d=" M 27.88 10.04 C 38.07 4.06 49.94 1.13 61.66 0.23 C 61.65 1.79 61.63 3.35 61.62 4.91 C 51.44 5.68 41.46 8.39 32.25 12.78 C 32.21 23.55 32.45 34.34 32.15 45.11 C 31.26 47.53 30.13 49.85 29.20 52.25 C 28.39 49.20 27.28 46.18 27.52 42.97 C 27.83 32.00 27.11 20.97 27.88 10.04 Z" />
</g>
<g id="#e0323aff">
<path fill="#e0323a" opacity="1.00" d=" M 61.66 0.23 C 68.33 -0.07 75.05 0.05 81.65 1.19 C 81.35 2.33 80.76 4.60 80.46 5.74 C 74.23 4.79 67.91 4.42 61.62 4.91 C 61.63 3.35 61.65 1.79 61.66 0.23 Z" />
<path fill="#e0323a" opacity="1.00" d=" M 34.37 77.09 C 35.51 75.68 36.66 74.28 37.83 72.89 C 39.81 78.64 42.83 84.06 46.93 88.57 C 45.46 91.79 44.11 95.06 42.47 98.20 C 41.08 99.83 39.53 101.30 38.02 102.81 C 38.91 104.04 39.81 105.26 40.71 106.49 C 39.24 108.74 37.79 111.01 36.35 113.29 C 35.61 111.24 34.87 109.19 34.13 107.14 C 31.43 110.48 28.68 113.78 25.93 117.07 C 28.12 118.57 30.56 119.85 32.27 121.94 C 31.74 125.56 27.78 127.57 25.55 130.25 C 27.32 133.08 29.10 135.91 30.87 138.75 C 29.76 139.93 28.65 141.10 27.54 142.28 C 25.37 138.50 22.43 135.09 20.97 130.94 C 20.51 127.43 24.09 125.33 26.12 123.02 C 23.92 121.33 20.59 119.47 21.41 116.15 C 22.63 112.91 25.42 110.61 27.46 107.91 C 24.95 108.67 22.43 109.43 19.98 110.40 C 20.51 108.54 21.04 106.67 21.57 104.81 C 25.35 103.47 29.37 102.74 32.96 100.92 C 36.26 98.21 38.85 94.57 42.93 92.90 C 40.81 87.25 36.25 82.89 34.37 77.09 Z" />
</g>
<g id="#eb433dff">
<path fill="#eb433d" opacity="1.00" d=" M 81.65 1.19 C 88.05 2.29 94.33 4.10 100.33 6.57 C 99.83 8.07 99.33 9.56 98.84 11.05 C 92.95 8.57 86.77 6.78 80.46 5.74 C 80.76 4.60 81.35 2.33 81.65 1.19 Z" />
</g>
<g id="#f85740ff">
<path fill="#f85740" opacity="1.00" d=" M 100.33 6.57 C 102.68 7.59 105.09 8.55 107.16 10.08 C 107.72 22.61 107.44 35.21 107.29 47.76 C 105.08 52.15 105.83 57.20 104.84 61.88 C 103.22 69.57 101.29 77.38 97.14 84.14 C 95.41 87.11 92.78 89.63 92.07 93.10 C 93.07 93.52 94.06 93.97 95.05 94.43 C 94.14 95.69 93.26 96.97 92.28 98.18 C 85.41 104.97 77.90 111.10 70.90 117.75 C 73.89 120.64 76.82 123.59 79.76 126.51 C 79.93 126.29 80.25 125.84 80.41 125.61 C 79.29 127.20 78.24 128.83 77.19 130.46 C 75.96 129.43 74.78 128.35 73.57 127.31 C 73.33 133.96 74.10 140.59 74.30 147.24 C 70.85 150.55 71.26 155.88 67.71 159.12 C 60.50 159.13 53.29 158.85 46.07 158.85 C 47.77 157.18 49.97 156.32 52.31 156.03 C 52.00 155.45 51.69 154.86 51.37 154.28 C 49.49 149.61 47.91 144.83 46.13 140.12 C 47.36 138.92 48.58 137.71 49.81 136.51 C 52.07 142.79 54.36 149.05 56.66 155.32 C 57.56 155.32 59.37 155.31 60.28 155.31 C 60.58 146.00 61.55 136.71 61.50 127.40 C 58.88 130.09 54.48 132.72 51.34 129.22 C 52.22 127.73 53.10 126.25 53.99 124.76 C 54.30 125.20 54.93 126.08 55.24 126.52 C 58.21 123.59 61.15 120.64 64.11 117.70 C 62.26 116.02 60.43 114.34 58.58 112.68 C 59.82 111.69 61.07 110.71 62.32 109.74 C 64.05 111.29 65.77 112.85 67.49 114.42 C 74.50 107.84 82.07 101.84 88.74 94.92 C 81.45 100.14 72.60 103.39 63.53 102.20 C 63.20 100.57 62.87 98.94 62.55 97.31 C 70.05 98.50 78.04 96.82 84.07 92.11 C 91.91 86.22 96.24 76.96 98.80 67.74 C 97.73 67.30 96.69 66.82 95.66 66.30 C 94.34 60.88 94.28 55.23 93.23 49.75 C 90.23 49.30 86.99 49.38 84.26 47.88 C 79.81 44.35 73.77 45.90 68.53 45.24 L 67.50 45.20 C 79.24 45.07 90.97 45.17 102.71 45.12 C 102.76 34.34 102.69 23.56 102.75 12.78 C 101.45 12.19 100.15 11.61 98.84 11.05 C 99.33 9.56 99.83 8.07 100.33 6.57 M 98.02 49.76 C 98.62 53.70 98.91 57.70 99.77 61.60 C 101.16 57.82 100.84 53.68 101.41 49.73 C 100.56 49.74 98.87 49.75 98.02 49.76 M 64.38 125.21 C 66.46 125.27 68.54 125.26 70.62 125.20 C 69.99 123.47 68.81 122.07 67.63 120.71 C 66.30 122.01 64.91 123.35 64.38 125.21 M 66.31 130.04 C 65.77 138.48 65.46 146.93 64.95 155.37 C 66.56 155.25 68.28 155.56 69.79 154.80 C 69.88 146.56 69.02 138.29 68.70 130.04 C 68.10 130.04 66.90 130.04 66.31 130.04 Z" />
</g>
<g id="#e3353bff">
<path fill="#e3353b" opacity="1.00" d=" M 65.34 14.07 C 65.85 11.94 69.38 11.96 69.68 14.20 C 69.99 16.96 69.78 19.74 69.80 22.51 C 72.57 22.53 75.34 22.36 78.10 22.65 C 80.40 22.94 80.46 26.74 78.11 27.07 C 75.36 27.45 72.57 27.18 69.81 27.23 C 69.77 30.05 70.03 32.90 69.64 35.70 C 69.20 37.71 65.82 37.74 65.36 35.71 C 64.99 32.90 65.24 30.05 65.20 27.23 C 62.45 27.18 59.67 27.45 56.93 27.06 C 54.64 26.73 54.59 23.20 56.78 22.65 C 59.58 22.39 62.40 22.53 65.21 22.52 C 65.23 19.70 65.02 16.88 65.34 14.07 Z" />
</g>
<g id="#d92538ff">
<path fill="#d92538" opacity="1.00" d=" M 32.15 45.11 C 43.93 45.20 55.72 44.98 67.50 45.20 L 68.53 45.24 C 63.78 45.53 58.74 45.10 54.34 47.26 C 50.45 49.23 46.04 49.42 41.78 49.75 C 40.71 55.22 40.67 60.87 39.34 66.28 C 38.32 66.82 37.28 67.31 36.21 67.74 C 36.75 69.46 37.25 71.19 37.83 72.89 C 36.66 74.28 35.51 75.68 34.37 77.09 C 31.44 69.13 29.50 60.75 29.20 52.25 C 30.13 49.85 31.26 47.53 32.15 45.11 M 33.58 49.72 C 34.13 53.68 33.86 57.82 35.22 61.63 C 36.08 57.72 36.40 53.72 36.97 49.76 C 36.13 49.75 34.43 49.73 33.58 49.72 Z" />
</g>
<g id="#e83e3cff">
<path fill="#e83e3c" opacity="1.00" d=" M 54.34 47.26 C 58.74 45.10 63.78 45.53 68.53 45.24 C 73.77 45.90 79.81 44.35 84.26 47.88 C 86.99 49.38 90.23 49.30 93.23 49.75 C 76.08 49.80 58.93 49.69 41.78 49.75 C 46.04 49.42 50.45 49.23 54.34 47.26 Z" />
</g>
<g id="#ea413cff">
<path fill="#ea413c" opacity="1.00" d=" M 42.47 98.20 C 44.11 95.06 45.46 91.79 46.93 88.57 C 51.09 92.99 56.59 96.11 62.55 97.31 C 62.87 98.94 63.20 100.57 63.53 102.20 C 57.11 101.56 51.47 98.30 46.18 94.84 C 51.14 100.23 57.00 104.71 62.32 109.74 C 61.07 110.71 59.82 111.69 58.58 112.68 C 53.17 107.89 47.88 102.98 42.47 98.20 Z" />
<path fill="#ea413c" opacity="1.00" d=" M 27.54 142.28 C 28.65 141.10 29.76 139.93 30.87 138.75 C 34.29 144.25 37.75 149.72 41.18 155.21 C 44.07 155.21 46.96 155.23 49.85 155.28 C 50.23 155.03 50.99 154.53 51.37 154.28 C 51.69 154.86 52.00 155.45 52.31 156.03 C 49.97 156.32 47.77 157.18 46.07 158.85 C 35.93 159.87 25.74 159.32 15.58 159.68 C 15.46 158.67 15.35 157.66 15.24 156.65 C 13.11 156.18 10.97 155.73 8.87 155.15 C 17.81 155.41 26.75 155.16 35.69 155.24 C 32.95 150.94 30.26 146.60 27.54 142.28 Z" />
</g>
<g id="#ff6943ff">
<path fill="#ff6943" opacity="1.00" d=" M 92.28 98.18 C 93.26 96.97 94.14 95.69 95.05 94.43 C 98.43 96.95 100.70 101.16 105.04 102.19 C 109.14 103.54 113.36 104.58 117.33 106.31 C 116.45 107.63 115.58 108.95 114.71 110.28 C 112.37 109.37 109.96 108.66 107.56 107.92 C 109.60 110.64 112.43 112.93 113.61 116.19 C 114.38 119.50 111.09 121.36 108.87 123.02 C 110.82 125.15 113.65 126.95 114.16 130.00 C 114.05 132.13 112.70 133.89 111.67 135.66 C 107.58 142.01 103.65 148.46 99.57 154.82 C 99.22 154.47 98.51 153.77 98.16 153.43 C 97.00 155.41 95.83 157.39 94.67 159.37 C 85.68 159.40 76.70 159.25 67.71 159.12 C 71.26 155.88 70.85 150.55 74.30 147.24 C 74.43 149.93 74.59 152.62 74.73 155.31 C 75.63 155.31 77.44 155.31 78.34 155.31 C 82.89 142.77 87.52 130.25 92.01 117.69 C 88.80 121.64 86.25 126.11 82.83 129.89 C 81.36 131.46 79.03 130.90 77.19 130.46 C 78.24 128.83 79.29 127.20 80.41 125.61 C 85.92 117.99 91.45 110.38 97.01 102.79 C 95.44 101.24 93.87 99.70 92.28 98.18 M 100.88 107.13 C 95.05 123.17 89.22 139.22 83.35 155.24 C 86.84 155.23 90.33 155.23 93.82 155.23 C 99.01 146.89 104.25 138.58 109.45 130.24 C 107.19 127.89 104.53 125.86 102.74 123.10 C 102.86 119.90 106.96 118.94 109.08 117.09 C 106.32 113.79 103.56 110.49 100.88 107.13 Z" />
</g>
<g id="#d72237ff">
<path fill="#d72237" opacity="1.00" d=" M 0.00 132.24 C 1.02 119.97 9.75 108.51 21.57 104.81 C 21.04 106.67 20.51 108.54 19.98 110.40 C 11.83 114.50 5.67 122.83 4.81 131.98 C 4.59 138.00 4.65 144.03 4.76 150.05 C 4.64 152.49 6.53 154.66 8.87 155.15 C 10.97 155.73 13.11 156.18 15.24 156.65 C 15.35 157.66 15.46 158.67 15.58 159.68 C 13.49 159.78 11.41 159.95 9.32 159.99 C 4.67 159.72 0.97 156.09 0.00 151.64 L 0.00 132.24 Z" />
</g>
<g id="#e93f3cff">
<path fill="#e93f3c" opacity="1.00" d=" M 36.35 113.29 C 37.79 111.01 39.24 108.74 40.71 106.49 C 45.12 112.59 49.59 118.65 53.99 124.76 C 53.10 126.25 52.22 127.73 51.34 129.22 C 48.58 125.37 45.91 121.46 43.01 117.71 C 45.17 124.01 47.59 130.23 49.81 136.51 C 48.58 137.71 47.36 138.92 46.13 140.12 C 42.85 131.19 39.63 122.23 36.35 113.29 Z" />
</g>
<g id="#ff8347ff">
<path fill="#ff8347" opacity="1.00" d=" M 114.71 110.28 C 115.58 108.95 116.45 107.63 117.33 106.31 C 127.21 111.33 134.38 121.61 135.00 132.76 L 135.00 151.05 C 134.46 155.58 130.86 159.31 126.33 159.97 C 115.79 159.21 105.22 159.61 94.67 159.37 C 95.83 157.39 97.00 155.41 98.16 153.43 C 98.51 153.77 99.22 154.47 99.57 154.82 L 99.95 155.16 C 108.31 155.31 116.69 155.28 125.06 155.19 C 127.84 155.33 130.38 152.88 130.25 150.08 C 130.38 144.39 130.33 138.70 130.26 133.01 C 129.78 123.38 123.36 114.40 114.71 110.28 Z" />
</g>
<g id="#e4573ced">
<path fill="#e4573c" opacity="0.93" d=" M 9.32 159.99 C 11.41 159.95 13.49 159.78 15.58 159.68 C 25.74 159.32 35.93 159.87 46.07 158.85 C 53.29 158.85 60.50 159.13 67.71 159.12 C 76.70 159.25 85.68 159.40 94.67 159.37 C 105.22 159.61 115.79 159.21 126.33 159.97 L 127.37 160.00 L 8.43 160.00 L 9.32 159.99 Z" />
</g>
</svg>
