<?xml version="1.0" encoding="UTF-8" ?>
<!DOCTYPE svg PUBLIC "-//W3C//DTD SVG 1.1//EN" "http://www.w3.org/Graphics/SVG/1.1/DTD/svg11.dtd">
<svg width="217pt" height="160pt" viewBox="0 0 217 160" version="1.1" xmlns="http://www.w3.org/2000/svg">
<g id="#cf1535ff">
<path fill="#cf1535" opacity="1.00" d=" M 31.55 15.49 C 40.16 6.23 52.51 0.38 65.22 0.33 C 63.83 3.11 61.20 4.93 59.70 7.63 C 46.41 9.73 34.83 18.99 28.99 30.99 C 23.68 41.65 23.65 54.30 27.06 65.54 C 24.88 67.69 23.75 70.57 22.42 73.26 C 19.59 65.83 17.79 57.95 17.80 49.97 C 17.71 37.25 22.77 24.68 31.55 15.49 Z" />
</g>
<g id="#d92738ff">
<path fill="#d92738" opacity="1.00" d=" M 65.22 0.33 C 72.69 0.13 80.13 1.73 87.10 4.35 C 84.75 5.47 82.87 7.27 81.75 9.63 C 74.65 7.43 67.08 6.51 59.70 7.63 C 61.20 4.93 63.83 3.11 65.22 0.33 Z" />
</g>
<g id="#f4503fff">
<path fill="#f4503f" opacity="1.00" d=" M 135.95 2.85 C 149.52 -1.45 165.10 -0.47 177.22 7.35 C 174.89 8.19 173.68 10.28 172.69 12.39 C 161.32 5.77 147.06 5.79 134.97 10.39 C 135.47 7.88 136.74 5.65 137.81 3.36 C 137.34 3.23 136.42 2.98 135.95 2.85 Z" />
</g>
<g id="#e9403cff">
<path fill="#e9403c" opacity="1.00" d=" M 109.19 15.59 C 117.51 10.21 126.53 5.91 135.95 2.85 C 136.42 2.98 137.34 3.23 137.81 3.36 C 136.74 5.65 135.47 7.88 134.97 10.39 C 126.44 13.51 118.30 17.68 110.82 22.83 C 109.59 23.92 108.10 22.74 107.00 22.09 C 104.89 20.73 102.81 19.32 100.62 18.09 C 102.14 16.22 103.82 14.40 106.12 13.48 C 107.16 14.16 108.19 14.86 109.19 15.59 Z" />
</g>
<g id="#e0313aff">
<path fill="#e0313a" opacity="1.00" d=" M 81.75 9.63 C 82.87 7.27 84.75 5.47 87.10 4.35 C 93.67 6.89 100.13 9.75 106.12 13.48 C 103.82 14.40 102.14 16.22 100.62 18.09 C 94.58 14.76 88.34 11.72 81.75 9.63 Z" />
</g>
<g id="#ff6b43ff">
<path fill="#ff6b43" opacity="1.00" d=" M 172.69 12.39 C 173.68 10.28 174.89 8.19 177.22 7.35 C 191.63 16.34 201.15 32.93 200.86 50.01 C 201.00 59.21 198.45 68.19 195.00 76.64 C 201.35 76.75 207.71 76.57 214.06 76.73 C 215.42 76.83 216.19 78.08 217.00 79.00 L 217.00 80.68 C 216.31 82.19 214.80 83.35 213.08 83.16 C 206.11 83.17 199.13 83.14 192.16 83.17 C 177.91 107.39 156.72 126.66 134.49 143.48 C 133.98 139.64 137.05 136.65 137.08 132.89 C 154.83 118.86 171.58 103.02 183.69 83.73 L 183.57 83.11 C 177.69 83.21 171.81 83.13 165.93 83.16 C 164.65 83.21 163.19 82.62 162.57 81.45 C 160.55 78.09 158.57 74.70 156.62 71.30 C 157.85 69.03 158.51 66.41 160.41 64.57 C 162.75 68.57 165.10 72.57 167.40 76.59 C 174.16 76.76 180.93 76.67 187.69 76.64 C 192.79 65.92 195.88 53.73 193.65 41.88 C 191.48 29.59 183.43 18.62 172.69 12.39 Z" />
</g>
<g id="#f14c3eff">
<path fill="#f14c3e" opacity="1.00" d=" M 128.96 34.01 C 130.59 31.95 134.07 32.77 134.82 35.19 C 135.98 38.63 136.99 42.13 138.06 45.61 C 135.69 47.73 135.05 50.94 133.34 53.51 C 132.84 52.06 132.44 50.58 132.04 49.11 L 131.24 49.11 C 124.98 70.54 118.84 92.02 112.49 113.42 C 111.73 116.19 107.40 116.36 106.35 113.74 C 102.96 105.26 99.72 96.72 96.39 88.21 C 97.20 84.87 98.40 81.63 100.11 78.64 C 102.90 86.00 105.95 93.27 108.59 100.68 C 108.80 100.76 109.20 100.92 109.40 101.00 C 115.12 80.67 121.09 60.42 126.91 40.12 C 127.60 38.09 127.84 35.87 128.96 34.01 Z" />
</g>
<g id="#e1333aff">
<path fill="#e1333a" opacity="1.00" d=" M 82.24 48.28 C 82.90 46.30 85.51 45.69 87.16 46.81 C 88.30 47.77 88.63 49.28 89.18 50.60 C 86.84 53.25 86.23 56.81 85.48 60.15 C 85.30 59.63 84.92 58.58 84.74 58.06 C 80.28 65.64 76.69 73.78 72.58 81.58 C 71.36 83.63 70.79 86.68 68.00 87.07 C 57.82 87.34 47.57 86.80 37.42 87.34 C 37.38 87.08 37.28 86.57 37.23 86.32 C 40.38 86.09 43.60 86.45 46.70 85.69 C 48.03 84.62 48.43 82.80 49.42 81.44 C 54.87 80.47 60.78 82.21 65.98 80.24 C 71.42 69.60 76.80 58.92 82.24 48.28 Z" />
</g>
<g id="#f85940ff">
<path fill="#f85940" opacity="1.00" d=" M 133.34 53.51 C 135.05 50.94 135.69 47.73 138.06 45.61 C 140.68 54.42 143.58 63.15 146.04 72.01 C 149.31 68.91 151.03 64.36 154.14 61.08 C 157.00 59.20 159.47 62.07 160.41 64.57 C 158.51 66.41 157.85 69.03 156.62 71.30 C 156.32 71.02 155.74 70.47 155.44 70.19 C 152.75 74.22 150.12 78.31 147.20 82.19 C 145.42 84.10 142.18 82.97 141.62 80.53 C 138.86 71.53 136.08 62.52 133.34 53.51 Z" />
</g>
<g id="#e73d3cff">
<path fill="#e73d3c" opacity="1.00" d=" M 85.48 60.15 C 86.23 56.81 86.84 53.25 89.18 50.60 C 92.80 59.95 96.49 69.29 100.11 78.64 C 98.40 81.63 97.20 84.87 96.39 88.21 C 92.72 78.87 89.10 69.51 85.48 60.15 Z" />
</g>
<g id="#d72337ff">
<path fill="#d72337" opacity="1.00" d=" M 22.42 73.26 C 23.75 70.57 24.88 67.69 27.06 65.54 C 28.52 70.63 30.73 75.46 33.15 80.15 C 44.08 80.38 55.04 80.17 65.98 80.24 C 60.78 82.21 54.87 80.47 49.42 81.44 C 48.43 82.80 48.03 84.62 46.70 85.69 C 43.60 86.45 40.38 86.09 37.23 86.32 C 37.28 86.57 37.38 87.08 37.42 87.34 C 42.18 94.11 47.41 100.53 53.00 106.63 C 51.43 108.09 49.89 109.57 48.35 111.06 C 41.29 103.62 35.01 95.47 29.26 87.01 C 27.60 85.56 25.23 86.14 23.24 85.71 C 22.99 83.67 24.47 81.99 25.52 80.40 C 24.67 77.95 23.31 75.71 22.42 73.26 Z" />
</g>
<g id="#cf1735ff">
<path fill="#cf1735" opacity="1.00" d=" M 3.00 87.04 C -0.86 86.81 -0.83 80.54 3.03 80.46 C 10.53 80.36 18.03 80.45 25.52 80.40 C 24.47 81.99 22.99 83.67 23.24 85.71 C 25.23 86.14 27.60 85.56 29.26 87.01 C 20.51 87.22 11.74 87.16 3.00 87.04 Z" />
</g>
<g id="#e2353bff">
<path fill="#e2353b" opacity="1.00" d=" M 48.35 111.06 C 49.89 109.57 51.43 108.09 53.00 106.63 C 58.55 112.58 64.49 118.16 70.63 123.51 C 69.23 125.15 67.82 126.79 66.41 128.43 C 60.09 122.96 54.09 117.13 48.35 111.06 Z" />
</g>
<g id="#eb423dff">
<path fill="#eb423d" opacity="1.00" d=" M 70.63 123.51 C 77.57 129.45 84.68 135.19 92.09 140.55 C 89.77 141.32 88.17 143.17 86.76 145.07 C 79.75 139.80 73.00 134.21 66.41 128.43 C 67.82 126.79 69.23 125.15 70.63 123.51 Z" />
</g>
<g id="#fa5b41ff">
<path fill="#fa5b41" opacity="1.00" d=" M 109.66 152.46 C 119.00 146.22 128.28 139.88 137.08 132.89 C 137.05 136.65 133.98 139.64 134.49 143.48 C 126.75 149.15 119.00 155.01 110.39 159.32 L 110.60 160.00 L 110.50 160.00 C 108.16 158.82 105.64 157.95 103.47 156.44 C 104.25 154.35 105.14 152.30 106.15 150.31 C 107.29 151.06 108.43 151.84 109.66 152.46 Z" />
</g>
<g id="#f24e3eff">
<path fill="#f24e3e" opacity="1.00" d=" M 86.76 145.07 C 88.17 143.17 89.77 141.32 92.09 140.55 C 96.68 143.94 101.39 147.15 106.15 150.31 C 105.14 152.30 104.25 154.35 103.47 156.44 C 97.65 153.02 92.19 149.06 86.76 145.07 Z" />
</g>
</svg>
