<?xml version="1.0" encoding="UTF-8" ?>
<!DOCTYPE svg PUBLIC "-//W3C//DTD SVG 1.1//EN" "http://www.w3.org/Graphics/SVG/1.1/DTD/svg11.dtd">
<svg width="141pt" height="160pt" viewBox="0 0 141 160" version="1.1" xmlns="http://www.w3.org/2000/svg">
<g id="#dd2c39ff">
<path fill="#dd2c39" opacity="1.00" d=" M 56.92 1.91 C 64.05 -0.34 71.66 -0.14 79.03 0.49 C 77.91 2.37 76.80 4.25 75.69 6.13 C 68.55 5.47 61.18 6.14 54.53 8.99 C 54.72 6.12 57.13 4.33 58.87 2.32 C 58.38 2.22 57.41 2.01 56.92 1.91 Z" />
</g>
<g id="#e73d3cff">
<path fill="#e73d3c" opacity="1.00" d=" M 79.03 0.49 C 84.59 1.17 90.11 2.35 95.40 4.21 C 94.88 6.11 94.36 8.01 93.84 9.92 C 87.98 7.89 81.88 6.54 75.69 6.13 C 76.80 4.25 77.91 2.37 79.03 0.49 Z" />
</g>
<g id="#d31c36ff">
<path fill="#d31c36" opacity="1.00" d=" M 37.34 14.36 C 42.58 8.55 49.38 4.10 56.92 1.91 C 57.41 2.01 58.38 2.22 58.87 2.32 C 57.13 4.33 54.72 6.12 54.53 8.99 C 49.09 11.48 44.27 15.16 40.38 19.71 C 41.36 24.33 42.27 28.98 43.16 33.62 C 41.35 35.27 39.69 37.08 38.19 39.02 C 37.10 33.35 35.96 27.69 34.87 22.02 C 32.67 22.39 30.48 22.82 28.37 23.54 C 28.57 21.42 28.75 19.30 28.94 17.18 C 31.74 16.26 35.33 16.90 37.34 14.36 Z" />
</g>
<g id="#f14d3eff">
<path fill="#f14d3e" opacity="1.00" d=" M 95.40 4.21 C 102.74 6.83 109.76 10.45 115.95 15.20 C 114.95 17.01 114.21 18.94 113.67 20.94 C 107.76 16.16 100.99 12.48 93.84 9.92 C 94.36 8.01 94.88 6.11 95.40 4.21 Z" />
</g>
<g id="#ff6642ff">
<path fill="#ff6642" opacity="1.00" d=" M 113.67 20.94 C 114.21 18.94 114.95 17.01 115.95 15.20 C 126.61 23.29 134.35 35.35 136.15 48.71 C 134.64 50.05 133.12 51.38 131.60 52.70 C 131.11 51.40 130.62 50.11 130.19 48.80 C 128.36 37.86 122.35 27.82 113.67 20.94 Z" />
</g>
<g id="#cc1034ff">
<path fill="#cc1034" opacity="1.00" d=" M 9.23 34.30 C 12.89 26.06 20.23 19.60 28.94 17.18 C 28.75 19.30 28.57 21.42 28.37 23.54 C 22.04 26.00 16.92 31.11 14.33 37.38 C 8.34 50.56 9.79 65.44 10.20 79.50 C 10.50 79.40 11.11 79.20 11.41 79.11 C 11.19 81.35 10.97 83.60 10.78 85.85 C 7.44 88.34 5.83 92.43 6.21 96.54 C 4.84 98.95 3.97 101.59 3.41 104.30 C 0.35 99.74 -0.68 93.70 1.51 88.57 C 2.50 86.07 4.87 83.97 4.38 81.06 C 3.71 65.45 2.32 48.84 9.23 34.30 Z" />
</g>
<g id="#da2838ff">
<path fill="#da2838" opacity="1.00" d=" M 38.19 39.02 C 39.69 37.08 41.35 35.27 43.16 33.62 C 44.77 41.10 45.91 48.69 47.81 56.11 C 46.77 58.04 45.98 60.09 45.33 62.19 C 42.09 70.25 34.45 75.94 26.38 78.63 C 27.00 76.30 27.58 73.96 28.12 71.61 C 34.40 68.71 38.93 63.14 41.78 56.97 C 40.55 50.99 39.42 45.00 38.19 39.02 Z" />
</g>
<g id="#ff7445ff">
<path fill="#ff7445" opacity="1.00" d=" M 130.19 48.80 C 130.62 50.11 131.11 51.40 131.60 52.70 C 133.12 51.38 134.64 50.05 136.15 48.71 C 137.61 58.43 137.32 68.29 136.72 78.07 C 136.74 80.50 136.02 83.25 137.73 85.31 C 140.86 89.72 141.54 95.65 139.50 100.66 C 137.30 106.58 131.48 110.21 125.46 111.22 C 120.48 125.78 109.79 137.42 99.00 147.99 C 92.75 154.30 84.44 158.56 75.60 159.64 C 76.04 156.77 77.39 154.15 80.03 152.76 C 85.14 151.15 89.93 148.50 93.80 144.77 C 101.17 137.79 108.12 130.27 113.70 121.77 C 117.50 115.82 120.89 109.23 121.21 102.04 C 121.36 97.49 121.19 92.94 121.31 88.40 C 116.23 88.33 111.16 88.15 106.11 87.64 C 106.46 85.69 106.81 83.75 107.16 81.80 C 114.97 82.64 122.85 82.52 130.68 82.04 C 131.07 70.97 131.96 59.81 130.19 48.80 M 127.15 88.23 C 127.16 93.74 127.42 99.26 126.92 104.75 C 134.28 103.11 137.23 93.27 132.27 87.70 C 130.56 87.88 128.85 88.05 127.15 88.23 Z" />
</g>
<g id="#e2343aff">
<path fill="#e2343a" opacity="1.00" d=" M 45.33 62.19 C 45.98 60.09 46.77 58.04 47.81 56.11 C 51.98 60.03 56.50 63.58 61.34 66.65 C 60.53 68.46 59.72 70.28 58.91 72.10 C 54.06 69.25 49.82 65.54 45.33 62.19 Z" />
<path fill="#e2343a" opacity="1.00" d=" M 38.42 92.56 C 42.55 91.09 47.54 92.35 50.42 95.67 C 51.82 97.59 50.22 100.19 48.00 100.42 C 46.30 99.71 44.81 98.54 43.06 97.93 C 39.69 96.67 36.76 102.49 33.79 99.19 C 31.61 95.97 35.81 93.43 38.42 92.56 Z" />
</g>
<g id="#ec443dff">
<path fill="#ec443d" opacity="1.00" d=" M 61.34 66.65 C 67.48 70.55 74.11 73.66 80.96 76.09 C 79.79 77.76 78.63 79.44 77.49 81.14 C 71.02 78.75 64.76 75.76 58.91 72.10 C 59.72 70.28 60.53 68.46 61.34 66.65 Z" />
</g>
<g id="#d52037ff">
<path fill="#d52037" opacity="1.00" d=" M 15.94 74.96 C 20.04 74.02 24.28 73.47 28.12 71.61 C 27.58 73.96 27.00 76.30 26.38 78.63 C 24.19 79.30 21.96 79.77 19.74 80.30 C 19.76 87.20 19.70 94.10 19.76 101.01 C 19.80 107.79 22.67 114.13 26.09 119.85 C 24.82 121.57 23.56 123.30 22.31 125.04 C 19.51 120.74 17.18 116.13 15.57 111.26 C 10.89 110.30 6.37 108.18 3.41 104.30 C 3.97 101.59 4.84 98.95 6.21 96.54 C 7.28 100.43 10.17 103.47 13.91 104.90 C 13.75 98.09 13.76 91.27 13.86 84.45 C 13.09 84.80 11.55 85.50 10.78 85.85 C 10.97 83.60 11.19 81.35 11.41 79.11 C 11.92 78.94 12.94 78.60 13.46 78.44 C 14.12 77.19 14.26 75.26 15.94 74.96 Z" />
</g>
<g id="#f95940ff">
<path fill="#f95940" opacity="1.00" d=" M 77.49 81.14 C 78.63 79.44 79.79 77.76 80.96 76.09 C 89.41 79.08 98.25 80.91 107.16 81.80 C 106.81 83.75 106.46 85.69 106.11 87.64 C 96.34 86.71 86.70 84.52 77.49 81.14 Z" />
</g>
<g id="#ff6342ff">
<path fill="#ff6342" opacity="1.00" d=" M 96.30 91.49 C 99.63 88.95 105.04 91.82 104.88 95.99 C 105.19 100.22 99.80 103.30 96.35 100.76 C 92.96 98.83 92.95 93.46 96.30 91.49 Z" />
</g>
<g id="#e3353bff">
<path fill="#e3353b" opacity="1.00" d=" M 26.09 119.85 C 29.48 125.44 33.60 130.55 37.99 135.39 C 36.72 136.94 35.45 138.51 34.20 140.08 C 29.88 135.36 25.83 130.39 22.31 125.04 C 23.56 123.30 24.82 121.57 26.09 119.85 Z" />
</g>
<g id="#f65440ff">
<path fill="#f65440" opacity="1.00" d=" M 57.25 120.00 C 59.13 118.47 61.22 120.27 62.02 122.05 C 64.22 126.36 69.45 128.84 74.16 127.54 C 75.66 127.38 77.37 126.28 78.75 127.32 C 80.77 128.38 80.57 131.51 78.49 132.39 C 70.40 136.24 59.70 132.08 56.30 123.79 C 55.79 122.53 55.87 120.70 57.25 120.00 Z" />
</g>
<g id="#eb433dff">
<path fill="#eb433d" opacity="1.00" d=" M 34.20 140.08 C 35.45 138.51 36.72 136.94 37.99 135.39 C 41.90 139.68 45.96 143.87 50.48 147.53 C 49.57 149.31 48.67 151.08 47.77 152.85 C 42.72 149.19 38.53 144.53 34.20 140.08 Z" />
</g>
<g id="#f85740ff">
<path fill="#f85740" opacity="1.00" d=" M 50.48 147.53 C 58.83 153.76 70.05 155.61 80.03 152.76 C 77.39 154.15 76.04 156.77 75.60 159.64 C 74.28 159.80 72.96 159.92 71.63 160.00 L 69.46 160.00 C 61.74 159.72 54.11 157.29 47.77 152.85 C 48.67 151.08 49.57 149.31 50.48 147.53 Z" />
</g>
</svg>
